<svg width="375" height="44" viewBox="0 0 375 44" fill="none" xmlns="http://www.w3.org/2000/svg">
<rect opacity="0.35" x="336.5" y="17.834" width="21" height="10.3333" rx="2.16667" stroke="black"/>
<path opacity="0.4" d="M359 21.001V25.001C359.805 24.6622 360.328 23.8741 360.328 23.001C360.328 22.1278 359.805 21.3398 359 21.001Z" fill="black"/>
<rect x="338" y="19.334" width="18" height="7.33333" rx="1.33333" fill="black"/>
<path fill-rule="evenodd" clip-rule="evenodd" d="M323.33 19.6084C325.546 19.6085 327.678 20.4599 329.283 21.9867C329.404 22.1046 329.598 22.1031 329.717 21.9834L330.873 20.8167C330.933 20.756 330.967 20.6737 330.966 20.5882C330.966 20.5026 330.931 20.4207 330.87 20.3607C326.655 16.3212 320.005 16.3212 315.79 20.3607C315.729 20.4207 315.694 20.5025 315.694 20.5881C315.693 20.6737 315.727 20.7559 315.787 20.8167L316.943 21.9834C317.062 22.1033 317.256 22.1048 317.377 21.9867C318.983 20.4598 321.114 19.6084 323.33 19.6084ZM323.33 23.404C324.548 23.404 325.722 23.8565 326.624 24.6737C326.747 24.7897 326.939 24.7872 327.058 24.668L328.212 23.5014C328.273 23.4402 328.307 23.3572 328.306 23.2709C328.305 23.1846 328.27 23.1023 328.208 23.0424C325.46 20.486 321.204 20.486 318.455 23.0424C318.393 23.1023 318.358 23.1847 318.357 23.271C318.356 23.3573 318.39 23.4403 318.451 23.5014L319.605 24.668C319.724 24.7872 319.917 24.7897 320.039 24.6737C320.941 23.857 322.114 23.4046 323.33 23.404ZM325.643 25.9579C325.645 26.0444 325.611 26.1278 325.549 26.1884L323.552 28.204C323.494 28.2633 323.414 28.2966 323.33 28.2966C323.247 28.2966 323.167 28.2633 323.109 28.204L321.111 26.1884C321.049 26.1277 321.015 26.0443 321.017 25.9578C321.019 25.8713 321.057 25.7894 321.121 25.7314C322.396 24.6525 324.265 24.6525 325.54 25.7314C325.604 25.7894 325.642 25.8714 325.643 25.9579Z" fill="black"/>
<path fill-rule="evenodd" clip-rule="evenodd" d="M309.667 17.667H308.667C308.114 17.667 307.667 18.1147 307.667 18.667V27.3337C307.667 27.8859 308.114 28.3337 308.667 28.3337H309.667C310.219 28.3337 310.667 27.8859 310.667 27.3337V18.667C310.667 18.1147 310.219 17.667 309.667 17.667ZM304 20.0003H305C305.552 20.0003 306 20.448 306 21.0003V27.3337C306 27.8859 305.552 28.3337 305 28.3337H304C303.448 28.3337 303 27.8859 303 27.3337V21.0003C303 20.448 303.448 20.0003 304 20.0003ZM300.333 22.3337H299.333C298.781 22.3337 298.333 22.7814 298.333 23.3337V27.3337C298.333 27.8859 298.781 28.3337 299.333 28.3337H300.333C300.885 28.3337 301.333 27.8859 301.333 27.3337V23.3337C301.333 22.7814 300.885 22.3337 300.333 22.3337ZM295.667 24.3337H294.667C294.114 24.3337 293.667 24.7814 293.667 25.3337V27.3337C293.667 27.8859 294.114 28.3337 294.667 28.3337H295.667C296.219 28.3337 296.667 27.8859 296.667 27.3337V25.3337C296.667 24.7814 296.219 24.3337 295.667 24.3337Z" fill="black"/>
<path d="M40.0802 24.8369C39.5242 25.4248 38.8748 25.7188 38.1319 25.7188C37.2569 25.7188 36.5596 25.4134 36.0401 24.8027C35.5206 24.1875 35.2608 23.3809 35.2608 22.3828C35.2608 21.7266 35.393 21.1318 35.6573 20.5986C35.9216 20.0654 36.2976 19.6507 36.7852 19.3545C37.2729 19.0583 37.838 18.9102 38.4805 18.9102C39.4832 18.9102 40.2784 19.2839 40.8663 20.0312C41.4542 20.7786 41.7481 21.779 41.7481 23.0322V23.4971C41.7481 25.2926 41.3425 26.6621 40.5313 27.6055C39.7201 28.5488 38.5102 29.0273 36.9014 29.041H36.7032V27.667H36.9425C37.9223 27.6533 38.6742 27.4186 39.1983 26.9629C39.7224 26.5026 40.0164 25.7939 40.0802 24.8369ZM38.4805 24.4199C38.8132 24.4199 39.1254 24.3242 39.4171 24.1328C39.7087 23.9414 39.9343 23.6771 40.0938 23.3398V22.6904C40.0938 21.9567 39.9434 21.3665 39.6427 20.9199C39.3419 20.4733 38.9522 20.25 38.4737 20.25C37.9952 20.25 37.6124 20.4482 37.3253 20.8447C37.0427 21.2367 36.9014 21.7334 36.9014 22.335C36.9014 22.9593 37.045 23.4629 37.3321 23.8457C37.6192 24.2285 38.002 24.4199 38.4805 24.4199ZM44.1546 27.25C44.4645 27.25 44.7038 27.3389 44.8724 27.5166C45.041 27.6898 45.1254 27.9085 45.1254 28.1729C45.1254 28.4326 45.041 28.6491 44.8724 28.8223C44.7038 28.9909 44.4645 29.0752 44.1546 29.0752C43.8584 29.0752 43.6237 28.9909 43.4505 28.8223C43.2774 28.6536 43.1908 28.4372 43.1908 28.1729C43.1908 27.9085 43.2751 27.6898 43.4437 27.5166C43.6123 27.3389 43.8493 27.25 44.1546 27.25ZM44.1546 21.4463C44.4645 21.4463 44.7038 21.5352 44.8724 21.7129C45.041 21.8861 45.1254 22.1048 45.1254 22.3691C45.1254 22.6289 45.041 22.8454 44.8724 23.0186C44.7038 23.1872 44.4645 23.2715 44.1546 23.2715C43.8584 23.2715 43.6237 23.1872 43.4505 23.0186C43.2774 22.8499 43.1908 22.6335 43.1908 22.3691C43.1908 22.1048 43.2751 21.8861 43.4437 21.7129C43.6123 21.5352 43.8493 21.4463 44.1546 21.4463ZM52.1051 25.4521H53.3424V26.7852H52.1051V29H50.444V26.7852H46.1442L46.0963 25.7734L50.3893 19.0469H52.1051V25.4521ZM47.8395 25.4521H50.444V21.2959L50.3209 21.5146L47.8395 25.4521ZM58.6611 29H57.0068V21.0088L54.5663 21.8428V20.4414L58.4491 19.0127H58.6611V29Z" fill="black"/>
</svg>
