<svg width="375" height="92" viewBox="0 0 375 92" fill="none" xmlns="http://www.w3.org/2000/svg">
<path d="M28.6911 75H31.2905L34.2095 64.794H34.3232L37.2351 75H39.8345L43.9396 60.4545H41.1058L38.4851 71.1506H38.3572L35.5518 60.4545H32.9737L30.1754 71.1435H30.0405L27.4197 60.4545H24.5859L28.6911 75ZM49.3693 75.2131C51.9119 75.2131 53.6591 73.9702 54.1136 72.0739L51.7131 71.804C51.3651 72.7273 50.5128 73.2102 49.4048 73.2102C47.7429 73.2102 46.642 72.1165 46.6207 70.2486H54.2202V69.4602C54.2202 65.6321 51.919 63.9489 49.2344 63.9489C46.1094 63.9489 44.071 66.2429 44.071 69.6094C44.071 73.0327 46.081 75.2131 49.3693 75.2131ZM46.6278 68.5156C46.706 67.1236 47.7358 65.9517 49.2699 65.9517C50.7472 65.9517 51.7415 67.0312 51.7557 68.5156H46.6278ZM58.9663 60.4545H56.3952V75H58.9663V60.4545ZM66.3686 75.2131C69.1101 75.2131 70.8572 73.5866 71.0419 71.2713H68.5845C68.3643 72.4432 67.5192 73.1179 66.3899 73.1179C64.7848 73.1179 63.7479 71.7756 63.7479 69.5455C63.7479 67.3438 64.8061 66.0227 66.3899 66.0227C67.6257 66.0227 68.3857 66.8182 68.5845 67.8693H71.0419C70.8643 65.5043 69.0178 63.9489 66.3544 63.9489C63.1584 63.9489 61.1413 66.2571 61.1413 69.5881C61.1413 72.8906 63.1087 75.2131 66.3686 75.2131ZM77.9116 75.2131C81.1076 75.2131 83.1388 72.9616 83.1388 69.5881C83.1388 66.2074 81.1076 63.9489 77.9116 63.9489C74.7156 63.9489 72.6843 66.2074 72.6843 69.5881C72.6843 72.9616 74.7156 75.2131 77.9116 75.2131ZM77.9258 73.1534C76.1573 73.1534 75.2908 71.5767 75.2908 69.581C75.2908 67.5852 76.1573 65.9872 77.9258 65.9872C79.6658 65.9872 80.5323 67.5852 80.5323 69.581C80.5323 71.5767 79.6658 73.1534 77.9258 73.1534ZM85.321 75H87.892V68.3665C87.892 67.0241 88.7869 66.1151 89.8949 66.1151C90.9815 66.1151 91.7273 66.8466 91.7273 67.9688V75H94.2486V68.196C94.2486 66.9673 94.9801 66.1151 96.223 66.1151C97.2599 66.1151 98.0838 66.7259 98.0838 68.0753V75H100.662V67.6776C100.662 65.2415 99.2557 63.9489 97.2528 63.9489C95.669 63.9489 94.4616 64.7301 93.9787 65.9446H93.8651C93.446 64.7088 92.3878 63.9489 90.9176 63.9489C89.4545 63.9489 88.3608 64.7017 87.9062 65.9446H87.7784V64.0909H85.321V75ZM108.1 75.2131C110.642 75.2131 112.39 73.9702 112.844 72.0739L110.444 71.804C110.096 72.7273 109.243 73.2102 108.135 73.2102C106.473 73.2102 105.373 72.1165 105.351 70.2486H112.951V69.4602C112.951 65.6321 110.65 63.9489 107.965 63.9489C104.84 63.9489 102.801 66.2429 102.801 69.6094C102.801 73.0327 104.811 75.2131 108.1 75.2131ZM105.358 68.5156C105.436 67.1236 106.466 65.9517 108 65.9517C109.478 65.9517 110.472 67.0312 110.486 68.5156H105.358Z" fill="#28352F"/>
<path fill-rule="evenodd" clip-rule="evenodd" d="M322 63C322 62.4477 322.448 62 323 62H339C339.552 62 340 62.4477 340 63C340 63.5523 339.552 64 339 64H323C322.448 64 322 63.5523 322 63ZM322 68C322 67.4477 322.448 67 323 67L339 67C339.552 67 340 67.4477 340 68C340 68.5523 339.552 69 339 69L323 69C322.448 69 322 68.5523 322 68ZM323 72C322.448 72 322 72.4477 322 73C322 73.5523 322.448 74 323 74H339C339.552 74 340 73.5523 340 73C340 72.4477 339.552 72 339 72H323Z" fill="#28352F"/>
</svg>
